 <?xml version="1.0" encoding="utf-8"?>
 <svg
      xmlns="http://www.w3.org/2000/svg"
      width="70px"
      height="60px"
      version="1.1"
      viewBox="0 0 70 80"
      xmlSpace="preserve"
    >
      <g
        className="ldl-scale"
        transform="scale(.8)"
      >
        <circle
          cx="50"
          cy="50"
          r="40"
          fill="#333"
      
        ></circle>
        <path
          fill="#FFF"
          d="M56.636 59.107a.996.996 0 01-.934-1.341c.96-2.603 2.38-4.918 4.22-6.879a13.541 13.541 0 003.677-9.297 13.47 13.47 0 00-4.289-9.912c-2.764-2.597-6.381-3.899-10.182-3.66-6.831.425-12.292 5.898-12.703 12.73-.223 3.705 1.023 7.25 3.509 9.983 1.908 2.097 3.373 4.458 4.354 7.017a.995.995 0 11-1.859.713c-.893-2.327-2.228-4.477-3.968-6.39-2.85-3.134-4.279-7.197-4.024-11.442.471-7.835 6.734-14.111 14.567-14.598 4.359-.272 8.501 1.219 11.67 4.196A15.652 15.652 0 0165.59 41.59c0 3.975-1.497 7.761-4.216 10.659-1.657 1.766-2.937 3.854-3.804 6.206a.997.997 0 01-.934.652zM57.774 62.172H42.225a.996.996 0 010-1.992h15.549a.996.996 0 010 1.992zM57.774 65.585H42.225a.996.996 0 010-1.992h15.549a.996.996 0 010 1.992zM57.774 68.998H42.225a.996.996 0 010-1.992h15.549a.996.996 0 010 1.992zM52.88 74h-5.76a3.06 3.06 0 01-3.057-3.057.996.996 0 011.992 0c0 .588.478 1.066 1.066 1.066h5.76c.588 0 1.066-.478 1.066-1.066a.996.996 0 011.992 0A3.063 3.063 0 0152.88 74z"
      
        ></path>
      </g>
    </svg>